<svg xmlns="http://www.w3.org/2000/svg" xmlns:xlink="http://www.w3.org/1999/xlink" width="500" zoomAndPan="magnify" viewBox="0 0 375 374.999991" height="500" preserveAspectRatio="xMidYMid meet" version="1.0"><defs><g/><clipPath id="id1"><path d="M 65 61 L 328 61 L 328 317 L 65 317 Z M 65 61 " clip-rule="nonzero"/></clipPath><clipPath id="id2"><path d="M 65.433594 220.957031 L 266.378906 61.542969 L 381.511719 206.671875 L 180.566406 366.085938 Z M 65.433594 220.957031 " clip-rule="nonzero"/></clipPath><clipPath id="id3"><path d="M 12.257812 163.800781 L 217.90625 0.65625 L 381.046875 206.304688 L 175.402344 369.445312 Z M 12.257812 163.800781 " clip-rule="nonzero"/></clipPath><clipPath id="id4"><path d="M 75 64 L 318 64 L 318 306 L 75 306 Z M 75 64 " clip-rule="nonzero"/></clipPath><clipPath id="id5"><path d="M 65.433594 220.957031 L 266.378906 61.542969 L 381.511719 206.671875 L 180.566406 366.085938 Z M 65.433594 220.957031 " clip-rule="nonzero"/></clipPath><clipPath id="id6"><path d="M 12.257812 163.800781 L 217.90625 0.65625 L 381.046875 206.304688 L 175.402344 369.445312 Z M 12.257812 163.800781 " clip-rule="nonzero"/></clipPath><clipPath id="id7"><path d="M 182 235 L 204 235 L 204 263.644531 L 182 263.644531 Z M 182 235 " clip-rule="nonzero"/></clipPath><clipPath id="id8"><path d="M 152.515625 114.394531 L 261.265625 114.394531 L 261.265625 182 L 152.515625 182 Z M 152.515625 114.394531 " clip-rule="nonzero"/></clipPath></defs><rect x="-37.5" width="450" fill="#ffffff" y="-37.499999" height="449.999989" fill-opacity="1"/><rect x="-37.5" width="450" fill="#390017" y="-37.499999" height="449.999989" fill-opacity="1"/><rect x="-37.5" width="450" fill="#ffffff" y="-37.499999" height="449.999989" fill-opacity="1"/><rect x="-37.5" width="450" fill="#390017" y="-37.499999" height="449.999989" fill-opacity="1"/><g clip-path="url(#id1)"><g clip-path="url(#id2)"><g clip-path="url(#id3)"><path fill="#390017" d="M 278.210938 287.867188 C 221.515625 332.847656 138.800781 323.3125 93.824219 266.617188 C 48.847656 209.921875 58.382812 127.210938 115.078125 82.230469 C 171.773438 37.253906 254.484375 46.789062 299.460938 103.484375 C 344.4375 160.179688 334.90625 242.890625 278.210938 287.867188 Z M 278.210938 287.867188 " fill-opacity="1" fill-rule="nonzero"/></g></g></g><g clip-path="url(#id4)"><g clip-path="url(#id5)"><g clip-path="url(#id6)"><path fill="#d8af71" d="M 121.523438 90.359375 C 69.3125 131.78125 60.535156 207.957031 101.953125 260.167969 C 143.375 312.378906 219.550781 321.160156 271.761719 279.738281 C 323.972656 238.320312 332.753906 162.144531 291.332031 109.933594 C 249.914062 57.722656 173.734375 48.941406 121.523438 90.359375 Z M 270.972656 278.746094 C 219.3125 319.730469 143.933594 311.046875 102.945312 259.382812 C 61.960938 207.714844 70.652344 132.335938 122.3125 91.355469 C 173.972656 50.371094 249.351562 59.054688 290.339844 110.71875 C 331.328125 162.386719 322.636719 237.761719 270.972656 278.746094 Z M 270.972656 278.746094 " fill-opacity="1" fill-rule="nonzero"/></g></g></g><g clip-path="url(#id7)"><path fill="#bd9150" d="M 200.316406 242.839844 C 199.289062 242.226562 198.339844 241.449219 197.472656 240.558594 C 196.898438 239.972656 196.355469 239.347656 195.863281 238.652344 C 195.128906 237.617188 194.535156 236.496094 194.054688 235.316406 C 193.289062 236.996094 192.300781 238.523438 191.117188 239.832031 C 190.085938 240.972656 188.898438 241.910156 187.621094 242.6875 C 186.898438 243.121094 186.144531 243.488281 185.363281 243.792969 C 183.941406 245.703125 182.992188 248.09375 182.832031 250.773438 C 182.441406 257.324219 186.734375 262.90625 192.421875 263.25 C 198.113281 263.589844 203.046875 258.558594 203.4375 252.007812 C 203.652344 248.445312 202.449219 245.203125 200.417969 242.898438 C 200.386719 242.875 200.347656 242.859375 200.316406 242.839844 Z M 199.191406 250.191406 C 197.847656 250.53125 196.371094 249.289062 195.898438 247.410156 C 195.65625 246.453125 195.726562 245.523438 196.027344 244.792969 C 196.316406 244.089844 196.816406 243.570312 197.472656 243.402344 C 198.09375 243.246094 198.738281 243.4375 199.304688 243.859375 C 199.964844 244.355469 200.515625 245.171875 200.769531 246.179688 C 201.242188 248.054688 200.535156 249.851562 199.191406 250.191406 Z M 199.191406 250.191406 " fill-opacity="1" fill-rule="nonzero"/></g><path fill="#bd9150" d="M 180.679688 162.90625 C 173.339844 162.167969 166.703125 168.417969 165.851562 176.863281 C 165.480469 180.519531 166.355469 184.023438 168.058594 187.117188 C 168.152344 187.128906 168.25 187.121094 168.347656 187.132812 C 172.324219 187.53125 175.871094 189.675781 178.332031 193.164062 C 178.738281 193.738281 179.09375 194.347656 179.425781 194.96875 C 179.652344 195.402344 179.867188 195.839844 180.054688 196.289062 C 180.179688 195.804688 180.316406 195.332031 180.472656 194.867188 C 182.371094 189.1875 186.511719 184.820312 191.582031 183.265625 C 191.984375 182.050781 192.296875 180.804688 192.421875 179.535156 C 193.273438 171.085938 188.015625 163.640625 180.679688 162.90625 Z M 186.34375 175.851562 C 184.824219 176.167969 183.230469 174.710938 182.785156 172.597656 C 182.339844 170.484375 183.210938 168.507812 184.726562 168.191406 C 186.246094 167.871094 187.839844 169.328125 188.285156 171.445312 C 188.730469 173.5625 187.859375 175.53125 186.34375 175.851562 Z M 186.34375 175.851562 " fill-opacity="1" fill-rule="nonzero"/><path fill="#bd9150" d="M 207.757812 189.40625 C 208.5625 190.589844 209.214844 191.878906 209.742188 193.226562 C 211.820312 190.449219 214.625 188.425781 217.839844 187.5625 C 218.933594 185.996094 219.761719 184.253906 220.265625 182.40625 C 219.8125 182.3125 219.335938 182.242188 218.890625 182.132812 C 215.59375 181.472656 212.449219 180.152344 210.078125 179.078125 C 205.8125 176.925781 202.320312 173.898438 200.179688 170.511719 C 199.460938 169.425781 198.933594 168.316406 198.492188 167.199219 C 196.210938 169.675781 194.632812 173.039062 194.246094 176.863281 C 194.042969 178.867188 194.242188 180.816406 194.714844 182.6875 C 195.492188 182.632812 196.277344 182.632812 197.054688 182.710938 C 201.3125 183.15625 205.117188 185.53125 207.757812 189.40625 Z M 207.757812 189.40625 " fill-opacity="1" fill-rule="nonzero"/><path fill="#bd9150" d="M 219.222656 220.605469 C 215.246094 220.207031 211.699219 218.0625 209.230469 214.574219 C 208.707031 213.832031 208.257812 213.042969 207.859375 212.222656 C 205.167969 216.433594 201.050781 219.316406 196.378906 219.84375 C 195.835938 219.902344 195.289062 219.921875 194.742188 219.921875 C 194.53125 219.917969 194.320312 219.898438 194.109375 219.886719 C 194.214844 220.109375 194.300781 220.347656 194.394531 220.574219 C 195.375 222.96875 195.828125 225.609375 195.710938 228.316406 C 195.695312 228.683594 195.683594 229.050781 195.644531 229.417969 C 195.515625 230.699219 195.222656 231.921875 194.855469 233.105469 C 195.410156 235.039062 196.277344 236.878906 197.535156 238.460938 C 198.464844 239.632812 199.59375 240.636719 200.851562 241.429688 C 202.398438 242.398438 204.140625 243.046875 205.992188 243.234375 C 213.332031 243.972656 219.96875 237.722656 220.820312 229.277344 C 220.832031 229.15625 220.84375 229.03125 220.855469 228.910156 C 221.082031 226.089844 220.625 223.199219 219.464844 220.617188 C 219.386719 220.609375 219.300781 220.613281 219.222656 220.605469 Z M 216.042969 228.609375 C 214.636719 228.902344 213.15625 227.550781 212.742188 225.585938 C 212.328125 223.621094 213.132812 221.789062 214.546875 221.492188 C 215.957031 221.199219 217.4375 222.550781 217.851562 224.515625 C 218.265625 226.480469 217.457031 228.3125 216.042969 228.609375 Z M 216.042969 228.609375 " fill-opacity="1" fill-rule="nonzero"/><path fill="#bd9150" d="M 193.332031 233.195312 C 193.71875 232.070312 193.992188 230.886719 194.144531 229.648438 C 194.160156 229.523438 194.1875 229.40625 194.199219 229.277344 C 194.207031 229.21875 194.199219 229.15625 194.207031 229.101562 C 194.339844 227.585938 194.300781 226.050781 194.042969 224.546875 C 193.941406 223.957031 193.746094 223.386719 193.582031 222.808594 C 193.273438 221.722656 192.863281 220.671875 192.332031 219.675781 C 191.769531 219.574219 191.222656 219.4375 190.683594 219.265625 C 187.554688 218.269531 184.792969 216.175781 182.742188 213.167969 C 182.300781 212.527344 181.925781 211.851562 181.570312 211.15625 C 181.210938 210.457031 180.894531 209.738281 180.621094 208.996094 C 180.386719 209.761719 180.132812 210.515625 179.808594 211.226562 C 177.773438 215.71875 174.058594 219.042969 169.632812 220.195312 C 168.5625 222.183594 167.855469 224.363281 167.628906 226.613281 C 166.777344 235.058594 172.035156 242.5 179.375 243.238281 C 182.566406 243.558594 185.625 242.554688 188.132812 240.625 C 190.453125 238.839844 192.285156 236.257812 193.332031 233.195312 Z M 186.886719 225.671875 C 186.492188 223.800781 187.261719 222.054688 188.605469 221.773438 C 189.949219 221.492188 191.355469 222.78125 191.75 224.652344 C 192.144531 226.523438 191.375 228.269531 190.03125 228.550781 C 188.6875 228.832031 187.277344 227.546875 186.886719 225.671875 Z M 186.886719 225.671875 " fill-opacity="1" fill-rule="nonzero"/><path fill="#bd9150" d="M 170.75 218.335938 C 173.757812 217.125 176.332031 214.734375 178.003906 211.609375 C 178.882812 209.964844 179.503906 208.125 179.8125 206.144531 C 179.753906 205.855469 179.691406 205.570312 179.640625 205.277344 C 179.640625 205.269531 179.640625 205.265625 179.640625 205.257812 C 179.34375 203.441406 179.277344 201.554688 179.464844 199.652344 C 179.476562 199.503906 179.503906 199.367188 179.519531 199.222656 C 179.132812 197.683594 178.527344 196.25 177.753906 194.953125 C 175.796875 191.683594 172.714844 189.359375 169.050781 188.714844 C 168.769531 188.667969 168.492188 188.609375 168.203125 188.582031 C 167.875 188.550781 167.554688 188.546875 167.230469 188.539062 C 160.289062 188.421875 154.191406 194.46875 153.378906 202.539062 C 152.527344 210.984375 157.785156 218.429688 165.121094 219.164062 C 166.320312 219.285156 167.496094 219.199219 168.640625 218.96875 C 169.355469 218.820312 170.0625 218.609375 170.75 218.335938 Z M 172.253906 193.863281 C 172.761719 193.757812 173.273438 193.863281 173.753906 194.113281 C 174.695312 194.605469 175.492188 195.6875 175.796875 197.074219 C 175.796875 197.085938 175.804688 197.101562 175.808594 197.117188 C 176.25 199.230469 175.382812 201.207031 173.863281 201.523438 C 172.34375 201.84375 170.753906 200.386719 170.308594 198.269531 C 169.863281 196.15625 170.734375 194.183594 172.253906 193.863281 Z M 172.253906 193.863281 " fill-opacity="1" fill-rule="nonzero"/><path fill="#bd9150" d="M 222.449219 188.574219 C 221.175781 188.449219 219.925781 188.542969 218.722656 188.8125 C 217.765625 189.023438 216.835938 189.34375 215.953125 189.777344 C 213.839844 190.816406 211.988281 192.457031 210.554688 194.515625 C 210.46875 194.640625 210.382812 194.769531 210.304688 194.894531 C 211.039062 197.433594 211.308594 200.160156 211.035156 202.929688 C 211.011719 203.179688 210.96875 203.417969 210.9375 203.664062 C 210.722656 205.308594 210.332031 206.882812 209.777344 208.359375 C 209.484375 209.160156 209.152344 209.9375 208.773438 210.675781 C 208.84375 210.847656 208.90625 211.027344 208.984375 211.195312 C 210.832031 215.308594 214.3125 218.308594 218.574219 219.035156 C 218.839844 219.078125 219.097656 219.132812 219.371094 219.164062 C 219.710938 219.199219 220.050781 219.199219 220.386719 219.203125 C 227.308594 219.296875 233.386719 213.257812 234.199219 205.203125 C 235.042969 196.757812 229.785156 189.3125 222.449219 188.574219 Z M 228.113281 201.523438 C 226.59375 201.84375 225 200.386719 224.554688 198.269531 C 224.109375 196.15625 224.980469 194.183594 226.496094 193.863281 C 228.015625 193.546875 229.605469 195.003906 230.054688 197.117188 C 230.5 199.230469 229.632812 201.203125 228.113281 201.523438 Z M 228.113281 201.523438 " fill-opacity="1" fill-rule="nonzero"/><path fill="#bd9150" d="M 192.640625 184.628906 C 192.003906 184.789062 191.386719 185.015625 190.777344 185.273438 C 187.0625 186.855469 183.964844 190.179688 182.285156 194.484375 C 181.679688 196.03125 181.257812 197.699219 181.058594 199.460938 C 181.046875 199.578125 181.023438 199.691406 181.011719 199.804688 C 180.84375 201.515625 180.902344 203.1875 181.148438 204.785156 C 181.164062 204.894531 181.183594 205 181.199219 205.109375 C 181.234375 205.320312 181.285156 205.523438 181.324219 205.730469 C 181.742188 207.769531 182.46875 209.667969 183.460938 211.339844 C 185.101562 214.105469 187.449219 216.246094 190.246094 217.390625 C 190.503906 217.492188 190.761719 217.597656 191.027344 217.683594 C 191.722656 217.917969 192.449219 218.078125 193.191406 218.183594 C 193.328125 218.203125 193.460938 218.238281 193.597656 218.25 C 194.28125 218.320312 194.960938 218.3125 195.632812 218.269531 C 200.054688 217.984375 204.066406 215.300781 206.640625 211.203125 C 206.652344 211.1875 206.664062 211.167969 206.675781 211.148438 C 206.820312 210.914062 206.964844 210.679688 207.105469 210.429688 C 207.457031 209.808594 207.765625 209.15625 208.046875 208.484375 C 208.460938 207.480469 208.800781 206.421875 209.054688 205.320312 C 209.246094 204.488281 209.402344 203.640625 209.488281 202.761719 C 209.6875 200.722656 209.558594 198.746094 209.183594 196.882812 C 209.046875 196.207031 208.882812 195.546875 208.675781 194.90625 C 208.671875 194.882812 208.664062 194.859375 208.65625 194.835938 C 206.824219 189.125 202.414062 184.886719 196.902344 184.3125 C 196.332031 184.253906 195.765625 184.246094 195.207031 184.265625 C 194.675781 184.289062 194.148438 184.34375 193.628906 184.429688 C 193.296875 184.488281 192.964844 184.546875 192.640625 184.628906 Z M 201.703125 190.082031 C 203.585938 189.671875 205.558594 191.542969 206.113281 194.261719 C 206.160156 194.492188 206.179688 194.722656 206.203125 194.953125 C 206.382812 196.667969 205.925781 198.230469 205.042969 199.140625 C 204.664062 199.53125 204.214844 199.8125 203.703125 199.925781 C 201.820312 200.335938 199.84375 198.464844 199.292969 195.746094 C 199.054688 194.574219 199.136719 193.449219 199.4375 192.503906 C 199.539062 192.1875 199.664062 191.898438 199.8125 191.628906 C 200.257812 190.832031 200.898438 190.257812 201.703125 190.082031 Z M 201.703125 190.082031 " fill-opacity="1" fill-rule="nonzero"/><g clip-path="url(#id8)"><path fill="#d8af71" d="M 260.179688 149.453125 C 258.898438 147.367188 257.015625 144.933594 254.742188 142.527344 C 253.382812 141.046875 251.882812 139.59375 250.253906 138.265625 C 248.632812 136.855469 246.886719 135.546875 245.007812 134.445312 C 241.261719 132.058594 237.023438 130.503906 231.949219 129.859375 C 234.390625 129.535156 236.714844 128.476562 238.675781 126.816406 C 240.636719 125.207031 242.222656 123.082031 243.3125 120.597656 C 243.515625 120.136719 243.707031 119.671875 243.871094 119.191406 L 242.484375 118.4375 C 240.144531 117.082031 237.789062 116.082031 235.335938 115.378906 C 233.648438 114.992188 231.960938 114.574219 230.121094 114.585938 C 227.617188 114.441406 224.808594 115.246094 222.226562 116.542969 C 218.976562 118.269531 215.945312 120.996094 214.523438 124.777344 C 214.066406 121.621094 213.074219 118.804688 211.835938 116.160156 L 211.347656 115.214844 C 210.699219 115.398438 210.050781 115.640625 209.410156 115.929688 C 205.054688 117.855469 200.894531 122.03125 199.699219 127.085938 C 199.109375 129.644531 199.304688 132.457031 200.335938 134.886719 C 203.3125 136.695312 206.375 138.371094 209.515625 139.921875 C 218.300781 144.261719 227.675781 147.574219 237.367188 149.851562 C 237.296875 149.839844 237.222656 149.835938 237.152344 149.824219 C 224.183594 147.355469 212.003906 143.179688 200.824219 137.203125 C 191.796875 132.375 183.410156 126.378906 175.792969 119.152344 L 172.210938 120.730469 C 174.492188 122.6875 176.847656 124.550781 179.261719 126.328125 C 179.257812 126.640625 179.300781 126.953125 179.464844 127.242188 L 179.476562 127.261719 C 183.207031 133.867188 182.792969 143.195312 177.542969 148.859375 C 175 151.703125 171.261719 153.445312 167.449219 153.328125 C 163.640625 153.285156 159.871094 151.453125 157.511719 148.40625 C 154.996094 145.464844 154.375 141.253906 156.019531 137.777344 C 157.585938 134.367188 161.351562 131.726562 165.109375 132.472656 C 168.789062 133.039062 172.042969 136.9375 170.8125 140.605469 C 170.296875 142.363281 168.773438 143.902344 167.027344 144.328125 C 165.253906 144.757812 163.246094 143.886719 162.347656 142.257812 C 162.191406 141.96875 161.832031 141.859375 161.535156 142.011719 C 161.238281 142.164062 161.117188 142.53125 161.273438 142.832031 L 161.28125 142.84375 C 162.375 144.957031 164.945312 146.175781 167.308594 145.664062 C 169.679688 145.128906 171.507812 143.296875 172.257812 141.070312 C 173.046875 138.855469 172.554688 136.226562 171.15625 134.386719 C 169.828125 132.492188 167.742188 131.136719 165.453125 130.679688 C 163.175781 130.203125 160.683594 130.652344 158.714844 131.875 C 156.734375 133.027344 155.109375 134.792969 154.09375 136.855469 C 153.066406 138.921875 152.652344 141.289062 152.929688 143.589844 C 153.171875 145.910156 154.214844 148.097656 155.578125 149.890625 C 158.292969 153.574219 162.75 155.894531 167.359375 156.066406 C 171.992188 156.320312 176.632812 154.289062 179.757812 150.945312 C 182.96875 147.632812 184.777344 143.1875 185.203125 138.703125 C 185.527344 135.738281 185.183594 132.738281 184.347656 129.867188 C 188.667969 132.726562 193.152344 135.3125 197.773438 137.617188 C 198.839844 138.152344 199.910156 138.664062 200.988281 139.164062 C 199.445312 139.230469 197.898438 139.492188 196.40625 139.964844 C 194.28125 140.609375 192.296875 141.625 190.660156 143.085938 C 186.722656 146.566406 185.242188 152.351562 187.335938 157.769531 C 187.640625 158.535156 188.023438 159.292969 188.476562 160.03125 L 189.90625 160.046875 C 193.699219 160.050781 197.359375 159.105469 200.421875 157.5625 C 199.355469 159.628906 199.152344 161.9375 199.625 164.265625 C 199.726562 164.765625 199.863281 165.265625 200.03125 165.769531 C 200.449219 167.023438 201.039062 168.273438 201.839844 169.476562 C 203.863281 172.683594 207.148438 175.421875 210.894531 177.3125 C 213.632812 178.554688 216.429688 179.65625 219.347656 180.25 C 219.78125 180.351562 220.222656 180.414062 220.660156 180.503906 C 221.132812 180.597656 221.605469 180.699219 222.082031 180.773438 C 225.464844 181.320312 228.910156 181.460938 232.3125 181.335938 L 234.867188 181.125 C 234.78125 180.613281 234.65625 180.101562 234.511719 179.59375 C 233.734375 176.902344 232.257812 174.242188 230.300781 171.878906 C 228.332031 169.566406 225.910156 167.472656 223.140625 165.863281 C 229.617188 168.183594 235.960938 168.082031 241.308594 166.910156 C 244 166.234375 246.457031 165.300781 248.640625 164.199219 C 250.832031 163.023438 252.75 161.699219 254.386719 160.339844 C 258.050781 157.203125 260.289062 153.804688 261.261719 151.40625 C 260.964844 150.796875 260.605469 150.140625 260.179688 149.453125 Z M 260.179688 149.453125 " fill-opacity="1" fill-rule="nonzero"/></g><g fill="#d8af71" fill-opacity="1"><g transform="translate(81.79405, 183.811257)"><g><path d="M -10.609375 -13 L 0.625 -6.78125 L 0.46875 -5.140625 L -11.703125 -1.0625 L -11.53125 -2.875 L -1.53125 -6.1875 L -10.765625 -11.3125 Z M -10.609375 -13 "/></g></g></g><g fill="#d8af71" fill-opacity="1"><g transform="translate(83.510428, 168.752759)"><g><path d="M -11.203125 -3.96875 L -10.875 -5.609375 L 0.65625 -3.375 L 0.328125 -1.734375 Z M -11.203125 -3.96875 "/></g></g></g><g fill="#d8af71" fill-opacity="1"><g transform="translate(85.051302, 160.499774)"><g><path d="M -7.75 -14.796875 L 3.484375 -11.34375 L 3.078125 -10.015625 L -7.359375 -5.859375 L 1.015625 -3.28125 L 0.515625 -1.6875 L -10.71875 -5.140625 L -10.3125 -6.453125 L 0.125 -10.609375 L -8.25 -13.1875 Z M -7.75 -14.796875 "/></g></g></g><g fill="#d8af71" fill-opacity="1"><g transform="translate(93.306499, 137.418491)"><g><path d="M -9.421875 -7.234375 L -7.03125 -11.5625 C -6.425781 -12.644531 -5.671875 -13.488281 -4.765625 -14.09375 C -3.867188 -14.695312 -2.90625 -15.015625 -1.875 -15.046875 C -0.84375 -15.085938 0.175781 -14.828125 1.1875 -14.265625 C 2.195312 -13.703125 2.960938 -12.972656 3.484375 -12.078125 C 4.003906 -11.191406 4.242188 -10.207031 4.203125 -9.125 C 4.171875 -8.039062 3.851562 -6.957031 3.25 -5.875 L 0.859375 -1.546875 Z M 1.9375 -6.484375 C 2.394531 -7.316406 2.632812 -8.132812 2.65625 -8.9375 C 2.6875 -9.75 2.503906 -10.488281 2.109375 -11.15625 C 1.722656 -11.820312 1.144531 -12.367188 0.375 -12.796875 C -0.382812 -13.222656 -1.148438 -13.421875 -1.921875 -13.390625 C -2.703125 -13.367188 -3.425781 -13.132812 -4.09375 -12.6875 C -4.769531 -12.238281 -5.335938 -11.597656 -5.796875 -10.765625 L -7.328125 -7.984375 L 0.40625 -3.703125 Z M 1.9375 -6.484375 "/></g></g></g><g fill="#d8af71" fill-opacity="1"><g transform="translate(101.936024, 122.703047)"><g><path d="M -9.046875 -7.5625 L -8.25 -8.71875 L -4.609375 -6.03125 L -5.28125 -5.0625 Z M -9.046875 -7.5625 "/></g></g></g><g fill="#d8af71" fill-opacity="1"><g transform="translate(105.793796, 117.09416)"><g><path d="M 5.484375 -8.828125 L 6.59375 -7.890625 L 1.125 -1.359375 L -7.890625 -8.890625 L -2.578125 -15.234375 L -1.453125 -14.296875 L -5.6875 -9.234375 L -2.921875 -6.921875 L 0.859375 -11.4375 L 1.953125 -10.515625 L -1.828125 -6 L 1.09375 -3.578125 Z M 5.484375 -8.828125 "/></g></g></g><g fill="#d8af71" fill-opacity="1"><g transform="translate(115.128196, 106.214851)"><g><path d="M 6.671875 -6.25 L 0.796875 -7.375 L 1.5625 -1.46875 L 0.15625 -0.15625 L -0.75 -7.578125 L -7.671875 -8.890625 L -6.28125 -10.203125 L -0.8125 -9.171875 L -1.515625 -14.671875 L -0.171875 -15.9375 L 0.671875 -8.96875 L 8.078125 -7.578125 Z M 6.671875 -6.25 "/></g></g></g><g fill="#d8af71" fill-opacity="1"><g transform="translate(125.718831, 96.50753)"><g><path d="M 5.75 -4.015625 C 4.800781 -3.328125 3.789062 -2.914062 2.71875 -2.78125 C 1.644531 -2.644531 0.628906 -2.785156 -0.328125 -3.203125 C -1.296875 -3.628906 -2.117188 -4.304688 -2.796875 -5.234375 C -3.460938 -6.148438 -3.847656 -7.132812 -3.953125 -8.1875 C -4.066406 -9.25 -3.890625 -10.265625 -3.421875 -11.234375 C -2.953125 -12.210938 -2.242188 -13.050781 -1.296875 -13.75 C -0.554688 -14.28125 0.207031 -14.644531 1 -14.84375 C 1.800781 -15.039062 2.597656 -15.054688 3.390625 -14.890625 L 3.125 -13.40625 C 1.863281 -13.632812 0.695312 -13.359375 -0.375 -12.578125 C -1.070312 -12.066406 -1.59375 -11.441406 -1.9375 -10.703125 C -2.28125 -9.972656 -2.40625 -9.210938 -2.3125 -8.421875 C -2.226562 -7.640625 -1.9375 -6.90625 -1.4375 -6.21875 C -0.9375 -5.53125 -0.328125 -5.019531 0.390625 -4.6875 C 1.117188 -4.363281 1.882812 -4.25 2.6875 -4.34375 C 3.488281 -4.445312 4.238281 -4.753906 4.9375 -5.265625 C 6 -6.035156 6.617188 -7.066406 6.796875 -8.359375 L 8.28125 -8.15625 C 8.195312 -7.34375 7.9375 -6.582031 7.5 -5.875 C 7.070312 -5.175781 6.488281 -4.554688 5.75 -4.015625 Z M 5.75 -4.015625 "/></g></g></g><g fill="#d8af71" fill-opacity="1"><g transform="translate(138.142821, 87.745128)"><g><path d="M 8.296875 -6.234375 L 9 -4.96875 L 1.546875 -0.859375 L -4.125 -11.140625 L 3.125 -15.140625 L 3.828125 -13.859375 L -1.953125 -10.65625 L -0.203125 -7.5 L 4.953125 -10.34375 L 5.640625 -9.09375 L 0.484375 -6.25 L 2.3125 -2.921875 Z M 8.296875 -6.234375 "/></g></g></g><g fill="#d8af71" fill-opacity="1"><g transform="translate(150.7579, 80.973493)"><g><path d="M 1.53125 -13.25 C 2.945312 -13.820312 4.195312 -13.929688 5.28125 -13.578125 C 6.363281 -13.222656 7.140625 -12.457031 7.609375 -11.28125 C 8.085938 -10.09375 8.054688 -9 7.515625 -8 C 6.972656 -7.007812 5.992188 -6.226562 4.578125 -5.65625 L 1.875 -4.59375 L 3.1875 -1.28125 L 1.640625 -0.65625 L -2.71875 -11.5625 Z M 3.984375 -6.984375 C 4.972656 -7.378906 5.640625 -7.890625 5.984375 -8.515625 C 6.335938 -9.148438 6.351562 -9.863281 6.03125 -10.65625 C 5.71875 -11.4375 5.21875 -11.929688 4.53125 -12.140625 C 3.851562 -12.359375 3.019531 -12.269531 2.03125 -11.875 L -0.625 -10.828125 L 1.328125 -5.9375 Z M 3.984375 -6.984375 "/></g></g></g><g fill="#d8af71" fill-opacity="1"><g transform="translate(164.9823, 75.569165)"><g><path d="M 1.296875 -11 L -2.59375 -9.953125 L -2.96875 -11.375 L 6.421875 -13.875 L 6.796875 -12.453125 L 2.90625 -11.421875 L 5.5625 -1.484375 L 3.953125 -1.0625 Z M 1.296875 -11 "/></g></g></g><g fill="#d8af71" fill-opacity="1"><g transform="translate(177.714472, 72.436639)"><g><path d="M -0.25 -11.875 L 1.40625 -12.15625 L 3.390625 -0.578125 L 1.734375 -0.296875 Z M -0.25 -11.875 "/></g></g></g><g fill="#d8af71" fill-opacity="1"><g transform="translate(185.968593, 70.957387)"><g><path d="M 7.0625 -0.296875 C 5.875 -0.222656 4.789062 -0.414062 3.8125 -0.875 C 2.832031 -1.34375 2.046875 -2.015625 1.453125 -2.890625 C 0.859375 -3.765625 0.523438 -4.769531 0.453125 -5.90625 C 0.378906 -7.03125 0.582031 -8.070312 1.0625 -9.03125 C 1.550781 -9.988281 2.25 -10.753906 3.15625 -11.328125 C 4.070312 -11.898438 5.125 -12.222656 6.3125 -12.296875 C 7.488281 -12.367188 8.566406 -12.175781 9.546875 -11.71875 C 10.535156 -11.257812 11.320312 -10.585938 11.90625 -9.703125 C 12.5 -8.816406 12.832031 -7.804688 12.90625 -6.671875 C 12.976562 -5.523438 12.773438 -4.484375 12.296875 -3.546875 C 11.816406 -2.609375 11.117188 -1.847656 10.203125 -1.265625 C 9.285156 -0.691406 8.238281 -0.367188 7.0625 -0.296875 Z M 6.96875 -1.796875 C 7.832031 -1.847656 8.59375 -2.085938 9.25 -2.515625 C 9.914062 -2.953125 10.425781 -3.523438 10.78125 -4.234375 C 11.132812 -4.941406 11.285156 -5.722656 11.234375 -6.578125 C 11.179688 -7.429688 10.9375 -8.1875 10.5 -8.84375 C 10.0625 -9.507812 9.484375 -10.015625 8.765625 -10.359375 C 8.054688 -10.710938 7.269531 -10.863281 6.40625 -10.8125 C 5.539062 -10.757812 4.773438 -10.515625 4.109375 -10.078125 C 3.441406 -9.640625 2.929688 -9.066406 2.578125 -8.359375 C 2.222656 -7.648438 2.070312 -6.867188 2.125 -6.015625 C 2.175781 -5.160156 2.421875 -4.398438 2.859375 -3.734375 C 3.296875 -3.078125 3.875 -2.578125 4.59375 -2.234375 C 5.3125 -1.890625 6.101562 -1.742188 6.96875 -1.796875 Z M 6.96875 -1.796875 "/></g></g></g><g fill="#d8af71" fill-opacity="1"><g transform="translate(203.01702, 70.138285)"><g><path d="M 12.78125 -10.765625 L 11.828125 0.953125 L 10.453125 0.84375 L 4.125 -8.453125 L 3.421875 0.28125 L 1.765625 0.140625 L 2.71875 -11.578125 L 4.078125 -11.46875 L 10.390625 -2.140625 L 11.109375 -10.890625 Z M 12.78125 -10.765625 "/></g></g></g></svg>